<svg version="1.1" xmlns="http://www.w3.org/2000/svg" style="display: block;" viewBox="0 0 2048 2048" width="1024" height="1024" preserveAspectRatio="none">
<path transform="translate(0,0)" fill="rgb(39,39,39)" d="M 1070.33 284.277 C 1104.93 283.013 1146.02 284.019 1181.21 284.027 L 1388.86 284.04 L 1529.93 283.961 C 1554.57 283.936 1579.87 283.29 1604.42 284.362 C 1635.22 285.707 1629.39 323.797 1629.36 344.33 L 1629.32 405.257 L 1630.16 591.669 L 1631.28 1235.52 C 1627.5 1241.61 1622.94 1247.64 1615.63 1249.67 C 1599.83 1254.05 1584 1258.22 1568.21 1262.69 L 1461.96 1293.38 L 1326.48 1333.52 C 1311.79 1337.88 1296.59 1342.55 1281.95 1346.92 C 1259.15 1353.72 1249.37 1355.52 1229.82 1340.67 C 1223.03 1325.95 1226.29 1273.13 1227.06 1254.76 C 1214.33 1254.12 1199.12 1254.58 1186.11 1254.56 L 1110.69 1254.54 C 1093.68 1254.58 1060.7 1258.06 1048.52 1245.79 C 1044.96 1242.18 1042.71 1237.48 1042.14 1232.45 C 1040.88 1221.16 1041.7 1201.44 1041.61 1189.59 L 1041.06 1099.9 L 1040.27 832.473 C 1040.32 824.909 1043.05 823.392 1048.33 818.111 C 1050.88 815.78 1053.88 813.989 1057.14 812.843 C 1070.17 808.228 1080.6 811.721 1092.19 817.297 L 1097.64 825.129 C 1096.65 839.075 1097.2 859.657 1097.2 874.143 L 1097.42 962.337 L 1098 1200.21 C 1137.07 1198.66 1186.99 1199.43 1226.11 1200.05 L 1226.03 655.392 L 1226.13 491.274 C 1226.13 469.92 1226.48 448.61 1225.25 427.297 C 1225.56 418.251 1232.82 408.734 1240.62 404.785 C 1258.21 395.869 1420.17 348.08 1422.86 342.174 C 1419.33 339.436 1385.1 340.05 1378.44 340.05 L 1312.5 340.078 L 1096.06 340.078 C 1095.79 362.987 1096.2 386.409 1096.32 409.357 C 1096.73 487.438 1095.59 565.635 1096.89 643.681 C 1097.39 673.903 1050 669.552 1040.82 649.201 C 1040.56 648.63 1040.61 625.561 1040.6 623.524 L 1040.58 544.97 L 1040.51 376.629 C 1040.54 353.539 1040.04 330.426 1040.28 307.352 C 1040.42 292.986 1058.41 286.083 1070.33 284.277 z M 1281.1 444.754 L 1281.61 920.585 L 1281.8 1172.93 C 1282.07 1212.56 1282.13 1252.2 1281.99 1291.84 L 1283.49 1292.89 C 1343.6 1276.96 1408.99 1255.99 1468.93 1238.17 L 1538.34 1217.52 C 1549.32 1214.29 1569.3 1208.96 1579.59 1204.86 C 1580.74 1178.93 1579.26 1151.65 1579.1 1125.55 L 1578.05 954.328 L 1577.84 490.75 L 1577.85 393.391 C 1577.85 385.177 1578.41 350.727 1576.76 345.282 C 1566.12 348.142 1555.44 352.432 1544.92 355.925 L 1479 377.831 C 1436.82 391.552 1394.79 405.72 1352.91 420.333 C 1330.18 428.046 1302.89 436.238 1281.1 444.754 z"/>
<path transform="translate(0,0)" fill="rgb(39,39,39)" d="M 1507.9 488.115 C 1514.64 487.55 1519.28 489.287 1525.7 491.066 C 1536.88 503.54 1537.71 505.204 1538.11 521.57 C 1535.86 525.713 1533.1 529.433 1530.46 533.317 C 1503.57 572.814 1477.03 612.719 1449.46 651.721 C 1438.78 666.833 1423.45 669.501 1407.48 661.1 C 1394.48 654.26 1384.1 636.329 1376.04 624.444 C 1367.86 611.625 1351.47 591.264 1345.62 579.11 C 1345.8 576.858 1346.03 574.611 1346.25 572.362 C 1347.03 565.405 1350.69 559.096 1356.35 554.972 C 1387.76 532.465 1406.95 572.603 1421.79 594.234 C 1437.57 573.82 1451.05 549.344 1466.4 528.407 C 1479.91 509.974 1484.21 494.446 1507.9 488.115 z"/>
<path transform="translate(0,0)" fill="rgb(39,39,39)" d="M 1343.9 777.223 C 1364.68 777.188 1369.35 781.548 1382 797.014 C 1384.21 811.718 1385.72 826.638 1374.17 838.396 C 1369.16 843.488 1360.7 847.347 1353.5 846.449 C 1302.47 846.241 1293.59 790.282 1343.9 777.223 z"/>
<path transform="translate(0,0)" fill="rgb(39,39,39)" fill-opacity="0.121569" d="M 1540.07 361.46 C 1542.14 361.848 1543.96 361.718 1546.06 361.564 L 1545.99 362.307 C 1533.62 367.529 1521.3 370.962 1508.77 375.653 C 1501.8 378.262 1502.3 379.886 1494.25 379.738 C 1493.64 379.879 1492.44 379.824 1491.74 379.827 C 1513.33 369.169 1521.45 369.64 1540.38 362.754 L 1540.07 361.46 z"/>
<path transform="translate(0,0)" fill="rgb(39,39,39)" fill-opacity="0.184314" d="M 1475.76 384.101 L 1477.71 384.624 C 1475.29 387.407 1440.91 398.556 1435.35 399.994 C 1439.34 393.904 1467.62 386.533 1475.76 384.101 z"/>
<path transform="translate(0,0)" fill="rgb(39,39,39)" fill-opacity="0.247059" d="M 1357.53 425.019 L 1357.72 428.057 C 1348.11 428 1335.87 435.738 1325.55 437.627 L 1324.65 436.497 L 1326.03 434.781 C 1336.81 431.926 1346.31 427.516 1357.53 425.019 z"/>
<path transform="translate(0,0)" fill="rgb(39,39,39)" fill-opacity="0.247059" d="M 1433.12 399.336 L 1432.83 400.529 C 1427.08 404.499 1411.26 408.38 1404.11 410.271 C 1404.42 410.188 1401.09 410.531 1400.37 410.71 L 1399.53 410.878 L 1400.1 409.799 C 1408.22 406.477 1424.63 400.939 1433.12 399.336 z"/>
<path transform="translate(0,0)" fill="rgb(39,39,39)" fill-opacity="0.0196078" d="M 1357.53 425.019 L 1355.53 423.893 C 1355.78 423.169 1356.03 422.445 1356.29 421.721 C 1360.81 421.097 1360.96 421.09 1365.38 422.467 L 1366.14 423.247 C 1358.47 425.682 1365.86 427.684 1357.72 428.057 L 1357.53 425.019 z"/>
<path transform="translate(0,0)" fill="rgb(39,39,39)" fill-opacity="0.262745" d="M 1299.91 443.937 C 1302.03 443.841 1300.96 443.661 1303.09 444.628 C 1300.29 446.776 1298.7 446.871 1295.23 448.001 L 1292.88 447.629 C 1293.96 445.582 1297.07 445.062 1299.91 443.937 z"/>
<path transform="translate(0,0)" fill="rgb(39,39,39)" d="M 633.611 607.438 C 664.623 607.13 681.774 615.023 708.489 621.419 C 764.591 634.85 799.176 638.064 839.414 683.464 C 857.242 700.091 909.843 740.691 935.779 739.065 C 968.864 736.99 1031.29 704.779 1064.27 693.079 C 1094.24 682.444 1124.33 663.384 1146.02 700.618 C 1153.86 714.072 1144.61 742.643 1131.15 749.354 C 1101.24 766.119 1072.23 776.435 1039.58 789.148 C 1006.37 802.079 944.048 834.165 910.933 836.133 C 891.59 837.283 839.308 800.463 822.109 789.17 C 814.277 784.027 804.069 773.223 794.201 768.859 L 793.022 769.362 C 786.92 803.634 779.759 837.909 773.501 872.041 C 770.265 889.69 759.726 931.946 767.351 947.374 C 798.732 1010.86 858.279 1061.46 871.989 1133.73 C 881.605 1192.37 895.857 1249.62 903.557 1308.22 C 910.057 1370.18 809.929 1373.12 796.939 1320.3 C 787.43 1281.63 783.415 1241.57 774.607 1202.54 C 768.883 1177.18 770.514 1157.6 754.679 1134.41 C 736.122 1107.23 718.558 1080.1 699.966 1053.03 C 695.969 1047.14 689.826 1032.35 684.776 1029.61 C 680.602 1035.08 678.628 1051.86 676.805 1059.69 C 671.525 1082.39 666.424 1105.94 660.441 1128.42 C 658.036 1137.46 653.013 1162.01 648.896 1169.35 C 634.001 1195.93 606.27 1221.74 587.907 1246.59 C 564.31 1272.89 542.046 1303.16 518.893 1330.13 C 507.21 1344.78 494.034 1351.04 475.432 1351.88 C 434.801 1353.72 406.139 1318.25 421.48 1279.43 C 434.842 1245.62 463.643 1218.15 486.267 1190.67 C 504.503 1168.52 524.526 1172.34 549.989 1171.17 C 580.413 1169.13 582.136 1156.8 598.431 1138.79 C 601.708 1113.74 599.851 1086.74 599.868 1061.46 C 599.883 1040.61 601.406 1018.46 599.293 997.736 C 598.603 990.965 596.929 982.892 593.627 976.899 C 586.082 963.204 567.111 954.935 561.687 944.019 C 557.632 935.86 577.103 801.802 579.699 780.459 C 581.144 768.584 581.19 756.471 583.108 744.676 C 583.819 740.303 585.216 736.18 586.695 732.017 C 578.539 738.443 569.411 744.547 561.846 750.968 C 526.037 781.361 506.97 826.623 495.943 871.236 C 494.396 877.496 489.335 890.594 488.862 896.219 C 489.412 896.2 489.962 896.181 490.512 896.162 C 514.01 902.002 521.297 917.557 520.443 940.051 C 520.01 951.463 520.171 960.559 520 969.93 C 573.894 969.341 570.431 981.936 570.506 1029 L 570.497 1089.92 C 570.495 1102.29 570.116 1117.23 571.317 1129.38 L 571.495 1131.09 C 564.518 1142.99 558.989 1146.57 545.185 1146.64 C 525.85 1146.73 506.66 1145.76 487.351 1144.91 L 394.978 1140.61 C 375.431 1139.69 355.89 1138.85 336.33 1138.22 C 316.277 1137.58 298.573 1139.3 288.416 1118.45 C 289.113 1109.01 288.395 1090.92 288.365 1080.6 L 288.579 1017.8 C 288.537 1005.26 288.215 992.734 288.207 980.139 C 287.922 973.097 292.527 967.59 297.527 963.002 C 307.021 954.288 323.617 955.164 335.653 956.086 C 344.441 956.758 353.163 957.43 361.934 958.041 C 361.937 938.962 359.446 909.106 380.842 900.378 C 391.874 895.877 394.353 897.728 400.242 885.937 C 415.073 856.241 417.624 823.707 425.597 791.941 C 435.167 748.593 454.488 713.001 483.886 679.828 C 489.768 673.2 498.762 667.474 505.414 661.539 C 541.262 631.893 586.686 609.917 633.611 607.438 z"/>
<path transform="translate(0,0)" fill="rgb(254,254,254)" d="M 398.273 935.282 C 425.231 936.192 453.029 938.06 480.054 939.462 L 479.834 966.188 C 459.144 963.532 419.047 960.682 398.054 959.899 C 398.027 951.743 398.191 943.45 398.273 935.282 z"/>
<path transform="translate(0,0)" fill="rgb(39,39,39)" d="M 861.304 1467.53 C 874.766 1466.75 901.198 1466.69 913.957 1468.2 L 964.457 1596.66 C 973.514 1619.15 989.563 1649.69 994.249 1672.99 C 1010.4 1644.06 1020.71 1593.88 1036.93 1561.87 C 1044.12 1547.69 1063.06 1480.15 1073.65 1469.84 C 1078.07 1465.54 1135.36 1467.56 1146.03 1468.14 C 1146.88 1562.89 1146.88 1657.64 1146.02 1752.39 C 1127.02 1752.32 1107.89 1753.06 1088.92 1752.09 C 1087.58 1740.69 1088.17 1719.45 1088.18 1707.35 L 1088.09 1635.25 C 1088.08 1619.9 1087.1 1604.93 1086.76 1589.63 C 1086.65 1584.42 1087.43 1579.18 1087.39 1573.47 C 1072.31 1619.78 1052.91 1665.36 1036.19 1711.1 C 1031.66 1723.51 1024.05 1740.23 1020.76 1752.28 C 1007.12 1752.93 982.355 1752.83 969.116 1751.94 C 965.386 1741.55 957.744 1727.66 953.037 1716.11 L 911.923 1614.09 C 908.053 1604.7 903.107 1585.48 898.657 1578.29 L 897.699 1578.64 C 896.914 1615.61 896.684 1652.59 897.008 1689.56 C 897.017 1706.6 897.83 1734.83 896.184 1750.82 L 896.028 1752.26 C 877.951 1752.57 859.869 1752.54 841.793 1752.16 L 841.471 1585.4 C 841.45 1546.52 840.968 1506.58 842.024 1467.8 L 861.304 1467.53 z"/>
<path transform="translate(0,0)" fill="rgb(39,39,39)" d="M 732.334 385.549 C 792.218 383.344 842.421 430.37 844.128 490.271 C 845.836 550.171 798.393 599.981 738.481 601.191 C 679.269 602.386 630.167 555.618 628.479 496.418 C 626.791 437.218 673.15 387.728 732.334 385.549 z"/>
<path transform="translate(0,0)" fill="rgb(39,39,39)" d="M 1674.71 1537.37 C 1679.63 1537.28 1684.55 1537.34 1689.47 1537.55 C 1715.68 1538.71 1741.63 1546.26 1758.16 1567.46 C 1775.34 1589.49 1778.09 1604.79 1777 1631.81 C 1775.4 1671.78 1778.34 1712.57 1776.3 1752.45 C 1758.23 1752.6 1740.27 1752.39 1722.2 1752.86 C 1721.63 1747.88 1720.11 1742.43 1718.91 1737.5 C 1713.13 1743.77 1706.99 1750.06 1698.61 1752.82 C 1661.89 1764.9 1613.15 1756.96 1594.33 1719.76 C 1583.96 1698.49 1588.25 1666.02 1605.44 1649.29 C 1636.14 1619.39 1681.25 1622.93 1720.63 1622.95 C 1719.91 1611.87 1719.16 1608.08 1712.2 1598.45 C 1703.19 1585.98 1689.94 1582.06 1675.24 1585.41 C 1657.88 1589.36 1650.45 1604.35 1641.88 1618.15 C 1633.98 1613.24 1601.75 1596.21 1599.52 1591.14 C 1603.66 1554.3 1643.41 1541.47 1674.71 1537.37 z M 1681.42 1715.13 C 1713.46 1710.87 1719.89 1693.85 1720.16 1664.37 C 1709.62 1664.24 1699.07 1664.26 1688.53 1664.43 C 1676.12 1665.51 1661.13 1667.65 1653.64 1678.26 C 1635.9 1703.38 1665.38 1711.45 1681.42 1715.13 z"/>
<path transform="translate(0,0)" fill="rgb(39,39,39)" fill-opacity="0.278431" d="M 1690.03 1671.02 C 1696.25 1668.35 1703.39 1669.56 1710.04 1670.4 C 1705.13 1672.39 1697.42 1672.19 1692.01 1672.15 L 1690.03 1671.02 z"/>
<path transform="translate(0,0)" fill="rgb(39,39,39)" fill-opacity="0.145098" d="M 1692.01 1672.15 C 1686.25 1672.95 1676.59 1677.06 1669.98 1673.62 C 1675.82 1672.38 1685.78 1672.52 1690.03 1671.02 L 1692.01 1672.15 z"/>
<path transform="translate(0,0)" fill="rgb(39,39,39)" d="M 353.38 1467.47 C 394.612 1466.62 445.284 1466.49 486.257 1468.07 C 486.081 1486.11 486.006 1504.14 486.029 1522.18 L 356.031 1521.97 C 355.749 1544.36 356 1567.33 355.988 1589.76 C 382.553 1588.48 438.8 1588.21 464.331 1590.13 C 463.961 1606.24 464.665 1621.63 464.041 1638.3 C 452.343 1637.89 439.071 1638.16 427.25 1638.14 L 356.071 1638.03 C 355.068 1674.51 356.019 1715.56 356.022 1752.42 C 336.835 1751.96 316.114 1752.52 296.555 1752.27 C 293.643 1686.3 297.42 1617 296.05 1550.69 C 295.504 1524.24 295.135 1493.74 296.785 1467.65 C 315.65 1467.73 334.516 1467.67 353.38 1467.47 z"/>
<path transform="translate(0,0)" fill="rgb(39,39,39)" d="M 706.043 1603.99 C 711.251 1590.19 731.298 1559.4 740.344 1546.21 C 742.072 1543.81 745.639 1541.98 748.597 1541.78 C 770.422 1540.24 793.493 1541.84 815.322 1540.49 C 805.791 1556.24 789.797 1577.41 779.098 1592.91 C 770.75 1605.01 749.226 1637.11 739.693 1646.13 C 747.451 1658.18 755.59 1669.32 763.657 1681.12 C 780.134 1705.21 796.203 1730.47 814.691 1753.02 C 794.555 1752.39 765.658 1753.72 746.971 1751.76 C 732.674 1736.42 717.066 1711.73 704.966 1693.83 C 699.435 1704.35 673.01 1744.63 665.589 1752.3 C 643.564 1754.19 619.746 1751.49 596.139 1754.28 C 598.946 1748.72 616.065 1724.27 620.796 1717.73 C 637.044 1695.26 653.87 1668.84 671.147 1647.6 C 665.384 1641.92 658.189 1630.54 653.312 1623.53 C 640.027 1604.58 627.155 1585.35 614.705 1565.85 C 610.494 1559.33 602.432 1545.4 597.384 1541.16 C 614.701 1541.28 650.751 1540.32 666.279 1542.22 C 677.059 1555.36 696.359 1588.79 706.043 1603.99 z"/>
<path transform="translate(0,0)" fill="rgb(39,39,39)" d="M 1347.48 1486.14 C 1355.2 1485.46 1362.06 1486.33 1369.68 1487.36 C 1369.5 1505.45 1369.12 1523.85 1369.61 1541.91 C 1386.06 1541.42 1402.52 1541.38 1418.98 1541.8 C 1419.12 1557.92 1418.95 1574.04 1418.47 1590.16 C 1402.29 1590.2 1386.1 1590.16 1369.91 1590.03 C 1368.86 1606.14 1368.57 1684.6 1372.13 1696.39 C 1373.5 1700.94 1376.59 1703.88 1380.84 1705.82 C 1391.81 1710.83 1405.55 1707.22 1416.34 1703.34 C 1420.93 1720.32 1422.93 1732.63 1424.26 1750.07 C 1416.4 1753.24 1412.42 1754.08 1404.21 1755.88 C 1375.07 1759.33 1325.68 1757.92 1317.71 1720.68 C 1314.61 1706.24 1315.99 1686.88 1315.99 1671.71 L 1316.15 1590.36 C 1302.1 1590.07 1288.05 1589.96 1274 1590.04 L 1273.88 1541.84 C 1287.24 1541.31 1302.4 1541.65 1315.91 1541.69 C 1316.76 1513.09 1308.99 1494.3 1347.48 1486.14 z"/>
<path transform="translate(0,0)" fill="rgb(39,39,39)" d="M 1548.25 1540.18 C 1562.34 1538.16 1573.42 1541.19 1586.61 1545.49 C 1581.78 1567.58 1584.4 1569.3 1573.23 1591.95 C 1555.35 1589.15 1541.38 1588.8 1527.71 1603.34 C 1504.32 1628.24 1508.03 1662.12 1508.07 1693.57 L 1508.17 1752.27 C 1494.62 1752.57 1481.07 1752.66 1467.52 1752.54 L 1451.92 1752.06 L 1451.91 1541.89 C 1469.97 1541.31 1488.04 1541.32 1506.1 1541.92 C 1505.96 1546.99 1506.3 1563.29 1509.05 1567.36 C 1520.56 1553.48 1528.39 1544.61 1546.93 1540.47 L 1548.25 1540.18 z"/>
<path transform="translate(0,0)" fill="rgb(39,39,39)" d="M 518.708 1541.41 C 538.424 1541.32 558.777 1540.89 578.403 1541.81 C 577.551 1559.89 578.126 1581.92 578.132 1600.23 L 578.077 1696.93 C 578.129 1714.39 578.854 1735.13 577.747 1752.35 C 557.752 1752.03 538.968 1752.83 518.553 1752.08 C 516.987 1729.53 518.307 1690.35 518.328 1666.66 C 518.364 1626 517.296 1581.73 518.708 1541.41 z"/>
<path transform="translate(0,0)" fill="rgb(39,39,39)" d="M 1220.97 1541.5 C 1232.44 1541.39 1242.64 1541.23 1254.12 1542.04 C 1251.86 1609.54 1253.77 1684.18 1253.37 1752.37 C 1245.63 1752.13 1237.55 1752.48 1229.78 1752.69 C 1217.28 1752.78 1206.55 1752.74 1194.06 1752.08 L 1193.92 1541.74 L 1220.97 1541.5 z"/>
<path transform="translate(0,0)" fill="rgb(39,39,39)" d="M 1215.73 1461.23 C 1230.52 1461.06 1232.89 1460.89 1245.29 1468.85 C 1249.62 1477.61 1254.14 1482.48 1254.77 1492.91 C 1256.05 1514.21 1245.21 1525.5 1224.58 1526.79 C 1174.78 1523.57 1169.05 1473.37 1215.73 1461.23 z"/>
<path transform="translate(0,0)" fill="rgb(39,39,39)" d="M 539.903 1461.17 L 556.752 1461.09 C 559.551 1462.71 562.207 1464.56 564.691 1466.63 C 588.455 1486.32 584.855 1525.15 549.241 1526.66 C 518.574 1525.98 499.22 1501.46 515.33 1473.56 C 526.306 1467.71 526.586 1465.02 539.903 1461.17 z"/>
<path transform="translate(0,0)" fill="rgb(39,39,39)" fill-opacity="0.145098" d="M 1195.11 346.529 C 1196.97 345.735 1251.63 346.394 1258.49 346.423 L 1335.51 346.457 C 1345.94 346.373 1386.71 344.11 1393.49 348.5 C 1388.59 350.081 1218.39 347.676 1196.13 348.335 L 1195.11 346.529 z"/>
<path transform="translate(0,0)" fill="rgb(39,39,39)" fill-opacity="0.301961" d="M 1334.13 1338.25 C 1347.61 1329.77 1381.58 1324.51 1397.75 1319 C 1404.62 1316.66 1423.58 1308.62 1430.07 1310.55 C 1425.8 1313.18 1415.4 1315.15 1410.09 1317.03 C 1387.63 1324.96 1356.69 1330.75 1335 1339.87 L 1334.13 1338.25 z"/>
<path transform="translate(0,0)" fill="rgb(39,39,39)" fill-opacity="0.364706" d="M 1553.85 1273.26 C 1554.14 1273.83 1554.44 1274.39 1554.74 1274.95 L 1553.37 1276.45 C 1538.07 1276.55 1505.23 1291.58 1488.82 1293.55 L 1487.7 1293.06 L 1487.54 1292.21 C 1491.62 1289.83 1548.8 1273.94 1553.85 1273.26 z"/>
<path transform="translate(0,0)" fill="rgb(39,39,39)" fill-opacity="0.282353" d="M 1471.9 1295.9 L 1474.79 1296.62 C 1471.56 1299.1 1442.83 1307.1 1436.8 1308.93 L 1435.65 1309.47 L 1434.71 1308.67 C 1437.18 1305.22 1465.42 1297.94 1471.9 1295.9 z"/>
<path transform="translate(0,0)" fill="rgb(39,39,39)" fill-opacity="0.298039" d="M 1593.47 1261.03 L 1594.96 1261.16 L 1594.82 1262.22 L 1593.91 1262 L 1593.68 1263.1 C 1585.3 1267.02 1571.4 1269.22 1560.16 1274.45 L 1559.15 1275.11 L 1558.37 1274.13 L 1559.62 1271.84 C 1566.58 1266.95 1588.16 1265.6 1593.47 1261.03 z"/>
<path transform="translate(0,0)" fill="rgb(39,39,39)" fill-opacity="0.427451" d="M 1298.64 1347.82 C 1302.41 1346.34 1330.41 1338.25 1334.13 1338.25 L 1335 1339.87 C 1331.48 1340.23 1305.29 1347.77 1300.4 1349.39 L 1298.64 1347.82 z"/>
<path transform="translate(0,0)" fill="rgb(39,39,39)" fill-opacity="0.309804" d="M 1300.4 1349.39 C 1293.39 1351.22 1272.94 1358.88 1267.74 1358.26 L 1268.24 1357.32 C 1273.82 1353.72 1291.16 1349.93 1298.64 1347.82 L 1300.4 1349.39 z"/>
<path transform="translate(0,0)" fill="rgb(39,39,39)" fill-opacity="0.0470588" d="M 1223.08 1533.83 C 1223.35 1533.82 1245.97 1537.43 1245.89 1537.33 C 1241.76 1537.96 1222.58 1539.03 1219.16 1537.89 C 1220.88 1537.44 1221.93 1537.07 1223.6 1536.45 L 1223.08 1533.83 z"/>
<path transform="translate(0,0)" fill="rgb(39,39,39)" fill-opacity="0.243137" d="M 528.732 1153.52 C 525.489 1153.72 509.253 1153.07 508.68 1153.19 L 509.068 1152.76 C 516.181 1151.32 534.256 1150.62 541.365 1152.07 C 536.064 1153.39 534.094 1153.32 528.732 1153.52 z"/>
<path transform="translate(0,0)" fill="rgb(39,39,39)" fill-opacity="0.152941" d="M 322.076 1144.57 C 329.892 1143.59 348.227 1142.78 355.415 1145.42 C 344.114 1145.97 334.444 1146.03 323.161 1145.94 L 322.076 1144.57 z"/>
<path transform="translate(0,0)" fill="rgb(39,39,39)" fill-opacity="0.270588" d="M 723.863 608.23 C 730.148 607.345 751.227 606.991 756.263 609.423 C 746.238 609.628 733.039 611.882 723.863 608.23 z"/>
<path transform="translate(0,0)" fill="rgb(39,39,39)" fill-opacity="0.235294" d="M 1682.48 1761.99 L 1685.36 1762.04 L 1685.75 1763 C 1679.33 1765.51 1668.69 1766.27 1661.75 1766.17 C 1659.18 1765.81 1660.35 1766.27 1658.24 1764.83 C 1664.64 1762.42 1672.69 1765.89 1682.48 1761.99 z"/>
<path transform="translate(0,0)" fill="rgb(39,39,39)" fill-opacity="0.333333" d="M 1411.19 1760.25 L 1413.79 1759.97 L 1414.42 1761.04 C 1408.3 1763.21 1404.16 1763.98 1397.81 1765.27 C 1395.08 1764.83 1395.98 1765.32 1393.94 1763.76 C 1395.7 1762.32 1407.6 1760.94 1411.19 1760.25 z"/>
<path transform="translate(0,0)" fill="rgb(39,39,39)" fill-opacity="0.0862745" d="M 864.688 1362.07 C 866.795 1361.53 865.845 1361.37 867.567 1362.28 L 866.926 1363.52 C 861.426 1365.61 857.538 1365.72 851.76 1366.29 L 849.51 1365.52 L 849.928 1364.49 C 854.136 1363.87 858.563 1363.29 862.72 1362.47 L 864.688 1362.07 z"/>
<path transform="translate(0,0)" fill="rgb(39,39,39)" fill-opacity="0.113725" d="M 541.365 1152.07 C 546.925 1151.93 549.894 1151.65 555.43 1152.86 C 546.602 1154.29 537.62 1154.51 528.732 1153.52 C 534.094 1153.32 536.064 1153.39 541.365 1152.07 z"/>
<path transform="translate(0,0)" fill="rgb(39,39,39)" fill-opacity="0.223529" d="M 419.531 1148.53 C 428.904 1147.25 434.148 1147.44 443.292 1149.01 C 435.905 1150.14 426.529 1151.18 419.531 1148.53 z"/>
<path transform="translate(0,0)" fill="rgb(39,39,39)" fill-opacity="0.176471" d="M 453.195 1150.41 C 460.271 1149.98 466.332 1149.15 473.25 1150.65 L 474.688 1152.91 C 465.652 1149.85 460.286 1154.83 453.195 1150.41 z"/>
<path transform="translate(0,0)" fill="rgb(39,39,39)" fill-opacity="0.486275" d="M 1204.65 1536.09 C 1211.09 1535.13 1216.57 1534.34 1223.08 1533.83 L 1223.6 1536.45 C 1221.93 1537.07 1220.88 1537.44 1219.16 1537.89 L 1204.65 1536.09 z"/>
<path transform="translate(0,0)" fill="rgb(39,39,39)" fill-opacity="0.101961" d="M 360.216 1144.62 C 362.574 1143.47 375.674 1144.75 377.865 1146.38 C 375.088 1147.02 364.524 1146.33 361.193 1146.1 L 360.216 1144.62 z"/>
<path transform="translate(0,0)" fill="rgb(39,39,39)" fill-opacity="0.141176" d="M 484.382 1356.53 L 486.81 1355.83 L 486.995 1356.89 C 482.545 1359.48 480.263 1359.68 475.325 1360.76 C 472.169 1360.1 473.117 1360.92 471.35 1359.07 C 474.557 1357.41 479.467 1358.48 484.382 1356.53 z"/>
</svg>